<svg xmlns="http://www.w3.org/2000/svg" viewBox="0 0 250.58 289.61">
  <defs>
    <style>
      .cls-2{fill:#d34f1d}
    </style>
  </defs>
  <title>
    Asset 1
  </title>
  <g id="Layer_2" data-name="Layer 2">
    <g id="Layer_1-2" data-name="Layer 1">
      <path d="M164.54 37.55a50.64 50.64 0 01-35.41 14.83H127a37.41 37.41 0 01-36.5-38.62 37.47 37.47 0 0137.36 27.67A50.77 50.77 0 01179.39 0a50.79 50.79 0 01-14.85 37.55z" fill="#00954c"/>
      <path class="cls-2" d="M232.75 170.26a14.73 14.73 0 00-10.29-4.17h-.94a14.44 14.44 0 0111.23 4.17zM233.83 171.44c-.34-.41-.7-.8-1.08-1.18a.42.42 0 01.12.1 10.33 10.33 0 01.96 1.08zM235.4 173.77a18 18 0 00-1.52-2.29 12.57 12.57 0 011.52 2.29z"/>
      <path class="cls-2" d="M242 119.18a14.74 14.74 0 01-19.52-7.18 51.85 51.85 0 00-83.73-14.92 14.72 14.72 0 01-20.82 0 51.83 51.83 0 10-73.29 73.29l83.7 83.7 58.52-58.52h-43.79a14.73 14.73 0 010-29.45h79.39a14.73 14.73 0 0110.29 4.17c.39.39.75.77 1.08 1.18a18 18 0 011.52 2.29c.24.43.43.87.63 1.3a11.27 11.27 0 01.43 1.16 15.17 15.17 0 01.72 4.58 12.35 12.35 0 01-.07 1.35 14.29 14.29 0 01-.53 2.8c-.14.43-.29.89-.48 1.35a10.45 10.45 0 01-.6 1.3c-.22.41-.46.84-.72 1.25a8.64 8.64 0 01-.89 1.21c-.34.36-.65.72-1 1.08l-.51.53-93.61 93.59a14.72 14.72 0 01-20.82 0l-94.09-94.06A81.29 81.29 0 01128.34 67.41a81.35 81.35 0 01120.87 32.23 14.73 14.73 0 01-7.21 19.54zM233.88 190.09a11.32 11.32 0 01-1 1.13l-.51.48.51-.53c.35-.36.66-.72 1-1.08z"/>
    </g>
  </g>
</svg>
